<svg enable-background="new 0 0 140 140" height="512" viewBox="0 0 140 140" width="512" xmlns="http://www.w3.org/2000/svg"><circle cx="70" cy="70" fill="#dbd8dd" r="64"/><path d="m133.9515839 67.7713394c.0198975.4299316.039917.8601074.0499268 1.2800293v.1599121c.2399902 21.5700684-10.4200363 42.75-30.0400314 55.0400391-10.289917 6.439949-21.6999512 9.5900955-33.0098877 9.7500076h-.1801758c-2.8498535.0300293-5.6899414-.130127-8.5000038-.4799805l-34.829895-34.8300858c-.4299927-.3798828-.7200317-.9299316-.7200317-1.5500488v-35.1498985c0-1.1298828.9200439-2.0400391 2.0499878-2.0400391h18.9400024c.5500488 0 1.0500488.2199707 1.4100342.5700684l.0100098.0100098c.0200195.0100098.0400391.0300293.0500488.0400391l1.5 1.5c3.3798828-2.8601074 7.8398438-8.4001465 9.75-9.4501953 2.8099365-1.5598145 5.6398964-2.9799805 8.6499062-4.0898438 3.9399414-1.4501953 7.3601074-4.6499023 10.3601074-7.4399414 2.119873-1.9799805 4.7299805-4.5200195 5.4599609-7.4799805.4199219-1.7102051.2099609-4.7602539 1.8099365-5.9301758 2.0200195-1.4799805 5.1900635-2.0698242 7.3099365.1601562z" opacity=".1"/><path d="m89.7100372 46.5560722c2.0221405-1.46698 5.6809235-3.3531265 6.0776138-6.0518303 2.2475891-15.2924957-5.3711624-15.5343666-9.0750046-12.8231144-1.5965881 1.1685162-1.3919067 4.2228394-1.8126755 5.9314632-.7285843 2.960083-3.335556 5.5000877-5.4624329 7.4808159-2.9919205 2.7863235-6.4134979 5.9919319-10.3551102 7.4391708-3.0089111 1.1048546-5.8425827 2.5252876-8.6526375 4.0849075-2.5549507 1.4179192-9.7013664 10.9077568-12.7033195 11.1726761l.6773567 32.4002914 3.9831352 1.3101044c.7271004.2391281 1.4876289.3609772 2.2529488.3609772h40.3844719v-38.9651793h-8.4987334c-.982666-1.5899696-1.6732559-3.3063507-1.5688629-4.9812012.1884766-3.0227203 2.3277969-5.5993462 4.7532501-7.3590813z" fill="#d59247"/><g fill="#e7a14e"><path d="m100.5762711 58.8963547h-22.3113633c-2.7028046 0-4.8938065 2.1909981-4.8938065 4.8938065 0 2.7028122 2.1910019 4.8938065 4.8938065 4.8938065h22.3113632c2.7028046 0 4.8938065-2.1909943 4.8938065-4.8938065 0-2.7028084-2.1910019-4.8938065-4.8938064-4.8938065z"/><path d="m100.5762711 78.2863159h-22.3113633c-2.7028046 0-4.8938065 2.1910019-4.8938065 4.8938141 0 2.7028046 2.1910019 4.8938065 4.8938065 4.8938065h22.3113632c2.7028046 0 4.8938065-2.1910019 4.8938065-4.8938065 0-2.7028122-2.1910019-4.8938141-4.8938064-4.8938141z"/><path d="m98.7070084 88.0739365h-20.4421006c-2.7028046 0-4.8938065 2.1909943-4.8938065 4.8938065s2.1910019 4.8938065 4.8938065 4.8938065h20.4421005c2.7028046 0 4.8938065-2.1909943 4.8938065-4.8938065s-2.1910019-4.8938065-4.8938064-4.8938065z"/><path d="m102.4455338 68.5913391h-24.180626c-2.7028046 0-4.8938065 2.1909943-4.8938065 4.8938065s2.1910019 4.8938065 4.8938065 4.8938065h24.1806259c2.7028046 0 4.8938065-2.1909943 4.8938065-4.8938065s-2.1910019-4.8938065-4.8938064-4.8938065z"/></g><path d="m47.712944 59.9480438h-18.9410038c-1.1298409 0-2.0457611.9159203-2.0457611 2.0458717v35.150219c0 1.1299515.9159203 2.0458755 2.0457611 2.0458755h18.9410038c1.1297264 0 2.0457611-.9159241 2.0457611-2.0458755v-35.150219c0-1.1299514-.9160347-2.0458717-2.0457611-2.0458717z" fill="#de594e"/></svg>